<?xml version="1.0" encoding="utf-8"?>
<!-- Generator: Adobe Illustrator 23.0.0, SVG Export Plug-In . SVG Version: 6.00 Build 0)  -->
<svg version="1.1" id="图层_1" xmlns="http://www.w3.org/2000/svg" xmlns:xlink="http://www.w3.org/1999/xlink" x="0px" y="0px"
	 viewBox="0 0 271.5 166.3" style="enable-background:new 0 0 271.5 166.3;" xml:space="preserve">
<style type="text/css">
	.st0{fill:#742400;}
</style>
<g id="Layer_2">
	<path class="st0" d="M158.3,67.6c9.9,0.9,18.3,2.8,21.9,6c2,1.8-1.8,4.5-3.3,3c-2.5-2.4-9.8-3.9-18.6-4.5V67.6L158.3,67.6z
		 M158.3,116.3v-5c3.1-1.4,6-3.4,8.4-5.9c6-6,8.8-14,9.8-19.4c-4.4,1.2-8.9,2.1-13.4,2.7c-1.5,0.2-3.2,0.4-4.8,0.6v-4.6
		c1.4-0.2,2.9-0.3,4.2-0.5c7.3-1,13.1-2.3,15.7-3.7l1-0.5c0.8-0.4,1.8-0.2,2.2,0.6c0.1,0.3,0.2,0.6,0.2,0.9v1.1
		c-0.4,5.4-1.8,10.7-4.2,15.5c12.7-0.6,25.3-0.9,38-0.9c2.4,0,2.3,4.6,0,4.6c-13.5,0-27.1,0.3-40.6,1c-1.4,2.1-2.9,4.1-4.7,5.9
		C166.7,112,162.7,114.6,158.3,116.3z M142.4,78.7c8.5-19.2,2.2-28-2.4-34.4c-2.8-3.9-5.1-7-4.1-11c0.9-3.7,4.5-0.9,4.5,1.7
		c0,2,1.5,4.1,3.4,6.6c4,5.6,9.2,12.8,7.1,25.5c2.5,0.1,5,0.2,7.4,0.4v4.5c-2.7-0.2-5.5-0.3-8.4-0.4c-0.9,3.1-1.9,6-3.3,8.9
		C144.6,85.1,140.5,83.1,142.4,78.7L142.4,78.7z M158.2,84.7c-9.7,1.1-19.5,1.4-29.3,0.9c-10.1-0.6-18.3-2.3-20.1-5.6
		c-0.1-0.2-0.2-0.5-0.2-0.7c0-0.4,0.3-0.8,0.9-1.4c2.3-1.9,7.2-3.3,13.3-4.4c3.7-0.6,7.8-1.1,12.1-1.4c-0.2,0.5-0.4,0.9-0.6,1.4
		c-1.7,3.6,2.4,5.6,4.2,1.9c2-4.1,3.2-7.7,3.6-11.3c0.4-4.1-0.4-8.1-2.1-11.8c-1.6-3.6-5.5-1.4-4,2.3c1.3,2.8,1.8,5.9,1.6,9
		c-0.1,1.3-0.4,2.5-0.8,3.8c-4.9,0.3-9.8,0.8-14.6,1.6c-6.9,1.2-12.5,3-15.5,5.4c-1.9,1.6-2.9,3.4-2.6,5.5c0.1,0.8,0.4,1.6,0.8,2.3
		c2.7,4.9,12.2,7.3,23.8,8c9.9,0.5,19.8,0.2,29.6-0.9L158.2,84.7L158.2,84.7z M158.2,111.3c-4,1.7-8.3,2.6-12.7,2.7
		c-12.3,0.2-20.6-3.2-26.7-8.5s-10.3-12.7-14-20.1c-1.2-2.8-3.4-5-6.1-6.4v5.5c0.8,0.8,1.5,1.8,2,2.9c3,6.1,6.3,12.1,10.8,17.3
		c-4.4,0.5-8.8,0-12.9-1.5v8.5c5.6-1.1,11.2-2.1,16.9-2.9l0.2,0.2c6.9,6,16.2,9.9,29.8,9.6c4.3,0,8.6-0.8,12.6-2.3L158.2,111.3z
		 M98.7,79v5.5c-1.3-1.3-3.1-2-5-1.9c-2.6,0.3-5,1.7-6.5,3.8c-1.6,2.2-1.9,5.1-0.7,7.5c2,4.1,6.8,7.3,12.1,9.2v8.5
		c-8.8,1.7-17.5,3.7-26.1,5.9c-2.2,0.6-3.5-3.8-1.2-4.4c8.7-2.3,17.4-4.3,26.2-6c-8.6-3-13.2-7.1-15.1-11.2c-1.9-3.9-1.5-8.6,1-12.1
		c2.3-3.3,5.9-5.4,9.9-5.8C95.2,77.9,97.1,78.3,98.7,79L98.7,79z"/>
</g>
</svg>
