<svg xmlns="http://www.w3.org/2000/svg" xmlns:xlink="http://www.w3.org/1999/xlink" viewBox="0 0 271.48 166.31"><defs><style>.cls-1{stroke:#ababab;stroke-miterlimit:2.61;stroke-width:0.22px;fill:url(#GradientFill_1);}.cls-2{fill:#742400;}</style><radialGradient id="GradientFill_1" cx="443.64" cy="279.65" r="228.09" gradientTransform="translate(-132.07 -73.44) scale(0.6 0.56)" gradientUnits="userSpaceOnUse"><stop offset="0" stop-color="#fff"/><stop offset="0.31" stop-color="#fff"/><stop offset="1" stop-color="#f7f8f8"/></radialGradient></defs><title>SVG1</title><g id="Layer_1" data-name="Layer 1"><rect class="cls-1" x="0.11" y="0.11" width="271.26" height="166.1"/></g><g id="Layer_2" data-name="Layer 2"><path class="cls-2" d="M341.81,362.13c9.9.85,18.29,2.81,21.94,6,2,1.77-1.8,4.45-3.31,3-2.55-2.39-9.77-3.88-18.63-4.54v-4.5Zm0,48.67v-4.95a28,28,0,0,0,8.44-5.85c6-6,8.82-14,9.81-19.43a89.82,89.82,0,0,1-13.43,2.7c-1.55.22-3.17.42-4.82.59v-4.6c1.44-.16,2.85-.34,4.21-.52,7.32-1,13.14-2.33,15.66-3.69l1-.54a1.63,1.63,0,0,1,2.42,1.5l0,1.12a42.27,42.27,0,0,1-4.22,15.52q19-.9,38-.9c2.37,0,2.26,4.59,0,4.6-13.55,0-27.12.33-40.64,1a36.71,36.71,0,0,1-4.71,5.85A32.47,32.47,0,0,1,341.81,410.8ZM326,373.18c8.49-19.17,2.16-28-2.4-34.35-2.8-3.89-5.06-7-4.13-11,.87-3.68,4.47-.92,4.45,1.68,0,2,1.55,4.1,3.4,6.64,4,5.57,9.18,12.79,7.07,25.55,2.52.08,5,.22,7.38.42v4.5c-2.68-.2-5.5-.32-8.39-.38a62,62,0,0,1-3.25,8.92c-2,4.49-6.08,2.42-4.13-2Zm15.77,6.08a179.22,179.22,0,0,1-29.29.92c-10.14-.61-18.31-2.31-20.09-5.62a2.22,2.22,0,0,1-.24-.74c-.05-.38.28-.83.91-1.35,2.29-1.85,7.17-3.33,13.34-4.41,3.69-.64,7.81-1.11,12.09-1.42-.2.45-.41.9-.63,1.37-1.68,3.59,2.43,5.62,4.16,1.91,1.95-4.15,3.23-7.68,3.59-11.28a22.93,22.93,0,0,0-2.12-11.8c-1.57-3.61-5.53-1.41-4,2.29a18.19,18.19,0,0,1,1.56,9.05,20.13,20.13,0,0,1-.76,3.75,134.21,134.21,0,0,0-14.64,1.62c-6.92,1.2-12.54,3-15.46,5.36-1.92,1.56-2.85,3.39-2.57,5.53a6.69,6.69,0,0,0,.75,2.3c2.66,4.94,12.24,7.32,23.83,8a184.09,184.09,0,0,0,29.58-.9v-4.6Zm0,26.59a32.13,32.13,0,0,1-12.66,2.67c-12.28.22-20.59-3.23-26.71-8.52s-10.31-12.73-14-20.09a13,13,0,0,0-6.15-6.36v5.53a10.1,10.1,0,0,1,2,2.87c3,6.06,6.31,12.14,10.83,17.31a27.85,27.85,0,0,1-12.87-1.55v8.5q8.4-1.62,16.87-2.94l.23.19c6.91,6,16.21,9.88,29.79,9.64a37.36,37.36,0,0,0,12.59-2.3Zm-59.48-32.3v5.53a6.46,6.46,0,0,0-5-1.9,8.82,8.82,0,0,0-6.45,3.84,7.35,7.35,0,0,0-.67,7.53c2,4.13,6.83,7.32,12.13,9.16v8.5q-13.18,2.55-26.13,5.94c-2.18.57-3.47-3.83-1.18-4.43q13-3.41,26.18-6c-8.57-3-13.19-7.11-15.14-11.24a11.86,11.86,0,0,1,1-12.11,13.54,13.54,0,0,1,9.93-5.8A10.88,10.88,0,0,1,282.33,373.55Z" transform="translate(-183.56 -294.52)"/></g></svg>