<?xml version="1.0" encoding="utf-8"?>
<!-- Generator: Adobe Illustrator 23.0.0, SVG Export Plug-In . SVG Version: 6.00 Build 0)  -->
<svg version="1.1" id="butter" xmlns="http://www.w3.org/2000/svg" xmlns:xlink="http://www.w3.org/1999/xlink" x="0px" y="0px"
	 viewBox="0 0 118.2 95.7" style="enable-background:new 0 0 118.2 95.7;" xml:space="preserve">
<style type="text/css">
	.st0{fill-rule:evenodd;clip-rule:evenodd;fill:#B08CBF;}
	.st1{fill-rule:evenodd;clip-rule:evenodd;fill:#C6AFD4;}
	.st2{fill-rule:evenodd;clip-rule:evenodd;fill:#65327F;}
</style>
<title>SVG2</title>
<path id="_4" class="st0" d="M33.9,68c-21.2,22.4,8.1,38.7,23.4,18.5c-2.6-3.9-4.5-8.2-5.8-12.7c-3.3-12-1.6-24.7,5.7-34.5
	c-0.8-1-1.7-1.9-2.6-2.8c-15.3-14.6-40-24.8-54.4-24.2C-2,37.3,18.2,62.9,33.9,68z"/>
<path id="_3" class="st1" d="M84.3,68c21.2,22.4-8.1,38.7-23.4,18.5c2.6-3.9,4.5-8.2,5.8-12.7C70,61.7,68.3,49,61,39.2
	c0.8-1,1.7-1.9,2.6-2.8c15.3-14.6,40-24.8,54.4-24.2C120.2,37.3,100,62.9,84.3,68z"/>
<path id="_2" class="st2" d="M59.1,83.8c7.2-11.5,9.3-28.9,0-42.1C49.8,54.9,51.9,72.3,59.1,83.8z"/>
<path id="_1" class="st1" d="M59.1,33.5l0.3-2.8c0.9-10.2,4-21.4,12.6-27.8c6-4.5,19.5-4.8,19,5.8c-0.1,2.8-1.9,5.3-4.5,6.4
	c-2.4,1-5.2,0.7-7.3-0.8c-1.6-1,0.8-2.9,1.8-2.4c1.3,0.8,3,1,4.4,0.5c1.5-0.7,2.6-2.1,2.7-3.8C88.4,1,77.8,2.2,73.7,5.3
	c-7.5,5.6-10.2,15.2-11.3,24.1v0.3l-0.2,0.2c-0.4,0.5-0.9,0.9-1.3,1.4L59.1,33.5L59.1,33.5l-1.7-2.1c-0.4-0.5-0.8-1-1.3-1.4
	l-0.2-0.2v-0.3c-1.1-8.9-3.8-18.5-11.3-24.1c-4-3-14.7-4.2-14.3,3.3c0.1,1.7,1.1,3.1,2.7,3.8c1.5,0.6,3.1,0.4,4.4-0.5
	c1-0.5,3.3,1.4,1.8,2.4c-2.2,1.5-4.9,1.8-7.3,0.8c-2.6-1.1-4.3-3.5-4.5-6.3c-0.5-10.2,13-10.2,19-5.8C54.9,9.4,58,20.5,58.9,30.7
	L59.1,33.5z"/>
</svg>
