<svg xmlns="http://www.w3.org/2000/svg" xmlns:xlink="http://www.w3.org/1999/xlink" viewBox="0 0 271.48 166.31"><defs><style>.cls-1{stroke:#ababab;stroke-miterlimit:2.61;stroke-width:0.22px;fill:url(#GradientFill_1);}.cls-2{fill:#c6afd4;}.cls-2,.cls-3,.cls-4{fill-rule:evenodd;}.cls-3{fill:#b08cbf;}.cls-4{fill:#65327f;}</style><radialGradient id="GradientFill_1" cx="425.45" cy="251.08" r="228.09" gradientTransform="translate(-121.09 -57.44) scale(0.6 0.56)" gradientUnits="userSpaceOnUse"><stop offset="0" stop-color="#fff"/><stop offset="0.31" stop-color="#fff"/><stop offset="1" stop-color="#f7f8f8"/></radialGradient></defs><title>SVG2</title><g id="Layer_1" data-name="Layer 1"><rect class="cls-1" x="0.11" y="0.11" width="271.26" height="166.1"/></g><g id="Layer_2" data-name="Layer 2"><path class="cls-2" d="M306.5,346.28h0c17.13-16.81,40.37-27,64.43-26,.76,9.06.73,17.18-1.93,26-4.21,13.88-15,29.95-27.95,37.77,10.41,15.89.17,34.17-18.9,31.72-6.17-.8-11.44-4-15.65-8.42v-4.54c4.1,5.2,9.52,9.17,16,10,18.82,2.42,24.85-16,14.15-29.77,13.83-6.74,25.3-23.87,29.47-37.62a57.59,57.59,0,0,0,2-22.23c-21.08-.83-44.23,10.66-59.23,25-.86.82-1.68,1.68-2.45,2.56ZM272,384c-13-7.82-23.73-23.89-27.95-37.77-2.66-8.76-2.68-17-1.92-26,24.14-1,47.19,9.28,64.42,26v4.34h0a34.62,34.62,0,0,0-2.45-2.56c-15-14.3-38.15-25.79-59.23-25a57.82,57.82,0,0,0,2,22.23c4.17,13.75,15.64,30.88,29.47,37.62-10.69,13.78-4.67,32.19,14.15,29.77,6.52-.83,11.94-4.81,16-10h0v4.54h0c-4.2,4.39-9.47,7.62-15.65,8.42C271.78,418.13,261.55,399.85,272,384Z" transform="translate(-172.58 -278.52)"/><path class="cls-3" d="M281.27,381.76c-21.18,22.43,8.06,38.72,23.41,18.45a44.46,44.46,0,0,1-5.75-12.65c-3.32-12.07-1.59-24.7,5.67-34.57a35.43,35.43,0,0,0-2.6-2.78C286.66,335.59,262,325.4,247.57,326,245.44,351.08,265.6,376.66,281.27,381.76Z" transform="translate(-172.58 -278.52)"/><path class="cls-2" d="M331.74,381.76c21.18,22.44-8.06,38.71-23.42,18.45a44.5,44.5,0,0,0,5.76-12.65c3.31-12.07,1.58-24.7-5.68-34.57a37.59,37.59,0,0,1,2.61-2.78c15.33-14.62,40-24.81,54.43-24.24C367.57,351.08,347.41,376.66,331.74,381.76Z" transform="translate(-172.58 -278.52)"/><path class="cls-4" d="M306.5,397.58c7.19-11.51,9.28-28.86,0-42.13C297.22,368.72,299.31,386.07,306.5,397.58Z" transform="translate(-172.58 -278.52)"/><path class="cls-2" d="M306.5,347.24l.25-2.77c.89-10.19,4-21.36,12.59-27.75,6-4.5,19.53-4.75,19,5.75a7.35,7.35,0,0,1-4.47,6.38,7.93,7.93,0,0,1-7.34-.79c-1.55-.95.79-2.92,1.77-2.38a5,5,0,0,0,4.44.46,4.42,4.42,0,0,0,2.68-3.8c.37-7.59-10.25-6.31-14.34-3.27-7.51,5.6-10.18,15.22-11.26,24.09l0,.29-.2.22q-.66.69-1.26,1.44l-1.82,2.23v0h0v0l-1.82-2.24q-.6-.74-1.26-1.44l-.2-.21,0-.29c-1.08-8.87-3.76-18.49-11.26-24.09-4-3-14.7-4.15-14.34,3.27a4.42,4.42,0,0,0,2.68,3.8,5,5,0,0,0,4.45-.46c1-.54,3.33,1.42,1.76,2.38a7.91,7.91,0,0,1-7.33.79,7.34,7.34,0,0,1-4.48-6.38c-.51-10.18,13-10.23,19-5.75,8.58,6.39,11.69,17.56,12.59,27.74Z" transform="translate(-172.58 -278.52)"/></g></svg>