<?xml version="1.0" encoding="utf-8"?>
<!-- Generator: Adobe Illustrator 23.0.0, SVG Export Plug-In . SVG Version: 6.00 Build 0)  -->
<svg version="1.1" id="leaf" xmlns="http://www.w3.org/2000/svg" xmlns:xlink="http://www.w3.org/1999/xlink" x="0px" y="0px"
	 viewBox="0 0 271.5 166.3" style="enable-background:new 0 0 271.5 166.3;" xml:space="preserve">
<style type="text/css">
	.st0{fill-rule:evenodd;clip-rule:evenodd;fill:url(#li_1_);}
</style>
<linearGradient id="li_1_" gradientUnits="userSpaceOnUse" x1="301.8" y1="-219.39" x2="301.8" y2="-36.76" gradientTransform="matrix(1 0 0 -1 -169.67 -136.39)">
	<stop  offset="0" style="stop-color:#008B32"/>
	<stop  offset="1" style="stop-color:#85C12F"/>
</linearGradient>
<path id="li" class="st0" d="M233.6,31.8V54c-6.6,57.7-67.6,58.7-90.6,80.6v-21.1C157.6,68.6,193.3,40.2,233.6,31.8L233.6,31.8
	L233.6,31.8z M143,86.5c6.6-4.7,8.1-13.8,3.5-20.4c-1-1.3-2.1-2.5-3.5-3.5V86.5z M127.5,142.8c-1.5-3.1-3.6-5.9-6.2-8.2v-21.1
	C124.4,123,126.5,132.8,127.5,142.8z M143,62.6v23.9c-6.4,4.7-15.2,4.7-21.7,0V62.6C127.7,57.9,136.5,57.9,143,62.6z M143,113.5
	v21.1c-2.5,2.3-4.6,5.1-6.2,8.2C137.8,132.8,139.9,123,143,113.5L143,113.5z M121.3,134.6c-23-21.9-84-22.9-90.7-80.6V31.7
	c40.3,8.5,76,36.9,90.6,81.8L121.3,134.6L121.3,134.6z M121.3,62.6c-6.6,4.7-8.1,13.8-3.5,20.4c1,1.3,2.1,2.5,3.5,3.5V62.6z"/>
</svg>
