<svg xmlns="http://www.w3.org/2000/svg" xmlns:xlink="http://www.w3.org/1999/xlink" viewBox="0 0 271.48 166.31"><defs><style>.cls-1{stroke:#ababab;stroke-miterlimit:2.61;stroke-width:0.22px;fill:url(#GradientFill_1);}.cls-2{fill-rule:evenodd;fill:url(#GradientFill_2);}</style><radialGradient id="GradientFill_1" cx="420.62" cy="293.5" r="228.09" gradientTransform="translate(-118.17 -81.19) scale(0.6 0.56)" gradientUnits="userSpaceOnUse"><stop offset="0" stop-color="#fff"/><stop offset="0.31" stop-color="#fff"/><stop offset="1" stop-color="#f7f8f8"/></radialGradient><linearGradient id="GradientFill_2" x1="301.8" y1="385.28" x2="301.8" y2="202.65" gradientUnits="userSpaceOnUse"><stop offset="0" stop-color="#008b32"/><stop offset="1" stop-color="#85c12f"/></linearGradient></defs><title>SVG3</title><g id="Layer_1" data-name="Layer 1"><rect class="cls-1" x="0.11" y="0.11" width="271.26" height="166.1"/></g><g id="Layer_2" data-name="Layer 2"><path class="cls-2" d="M403.26,334.08v22.19C396.63,414,335.63,415,312.64,436.86V415.75c14.63-44.88,50.34-73.3,90.61-81.77v.1Zm-90.62,54.69a14.66,14.66,0,0,0,0-23.9Zm-15.5,56.33a28.49,28.49,0,0,0-6.17-8.24v-21.1a142.1,142.1,0,0,1,6.17,29.34Zm15.5-80.23v23.9a18.31,18.31,0,0,1-21.67,0v-23.9a18.31,18.31,0,0,1,21.67,0Zm0,50.88v21.11a28.52,28.52,0,0,0-6.18,8.24A142.33,142.33,0,0,1,312.64,415.75ZM291,436.86C268,415,207,414,200.34,356.27V334c40.27,8.47,76,36.89,90.62,81.78v21.1Zm0-72a14.66,14.66,0,0,0,0,23.9Z" transform="translate(-169.67 -302.28)"/></g></svg>