<?xml version="1.0" encoding="utf-8"?>
<!-- Generator: Adobe Illustrator 23.0.0, SVG Export Plug-In . SVG Version: 6.00 Build 0)  -->
<svg version="1.1" id="lego_1_" xmlns="http://www.w3.org/2000/svg" xmlns:xlink="http://www.w3.org/1999/xlink" x="0px" y="0px"
	 viewBox="0 0 271.5 166.3" style="enable-background:new 0 0 271.5 166.3;" xml:space="preserve">
<style type="text/css">
	.st0{fill-rule:evenodd;clip-rule:evenodd;}
</style>
<g id="_x31_">
	<path class="st0" d="M112.7,105.4v-5.6l5.2-9c0.1-0.2,0.3-0.3,0.5-0.1c0,0,0,0,0,0l3.4,1.9c0.2,0.1,0.3,0.3,0.1,0.5c0,0,0,0,0,0
		l-6.1,10.6C115.2,104.8,114,105.5,112.7,105.4L112.7,105.4z M112.7,90.9l2.3-2.3c0.2-0.1,0.2-0.4,0-0.6c0,0,0,0,0,0l-2.3-2.3V90.9z
		 M101.7,62.3c1.6,0.3,2.8,1.7,2.8,3.3v1c0,0.1,0,0.2-0.1,0.3c-0.1,0.1-0.2,0.1-0.3,0.1h-2.4L101.7,62.3L101.7,62.3z M112.7,85.8
		v5.2l-11,11v-6.6l10-10c0.1-0.1,0.2-0.1,0.3-0.1c0.1,0,0.2,0,0.3,0.1L112.7,85.8L112.7,85.8z M112.7,99.8l-2.3,4.1
		c-0.1,0.2,0,0.4,0.1,0.5l0.8,0.5c0.4,0.2,0.9,0.4,1.4,0.4L112.7,99.8L112.7,99.8z M101.7,86.9l7.8-4.5c0.2-0.1,0.3-0.4,0.1-0.5
		l-2-3.4c-0.1-0.2-0.4-0.2-0.5-0.1l-5.4,3.1L101.7,86.9L101.7,86.9z M101.7,76.1v-4.9l2.8-0.8c0.1,0,0.2,0,0.3,0
		c0.1,0.1,0.2,0.1,0.2,0.2l1,3.8c0,0.1,0,0.2,0,0.3c-0.1,0.1-0.1,0.2-0.2,0.2L101.7,76.1z M33.5,63.6v-1c0-0.2,0.2-0.4,0.4-0.4h67.2
		c0.2,0,0.4,0,0.6,0v4.6H36.8C35,66.8,33.5,65.4,33.5,63.6L33.5,63.6z M101.7,71.3v4.9L64.6,86c-1.8,0.5-3.6-0.6-4.1-2.4l-0.3-0.9
		c0-0.1,0-0.2,0-0.3c0.1-0.1,0.1-0.2,0.2-0.2L101.7,71.3L101.7,71.3z M101.7,81.5L76.4,96.1c-0.2,0.1-0.3,0.3-0.1,0.5c0,0,0,0,0,0
		l0.5,0.8c0.9,1.6,2.9,2.2,4.5,1.3c0,0,0,0,0,0L101.7,87V81.5L101.7,81.5z M101.7,95.3v6.6l-2.5,2.5c-1.3,1.3-3.4,1.3-4.7,0
		l-0.7-0.7c-0.2-0.1-0.2-0.4,0-0.6c0,0,0,0,0,0L101.7,95.3z"/>
	<path class="st0" d="M180.5,93v-5.4l14.7,8.5c0.1,0.1,0.2,0.1,0.2,0.2c0,0.1,0,0.2,0,0.3l-0.5,0.8c-0.9,1.6-2.9,2.2-4.5,1.3
		c0,0,0,0-0.1,0L180.5,93L180.5,93z M180.5,78.9v-4.9l30.6,8.2c0.1,0,0.2,0.1,0.2,0.2c0,0.1,0,0.2,0,0.3l-0.3,0.9
		c-0.5,1.8-2.3,2.8-4.1,2.4L180.5,78.9L180.5,78.9z M180.5,66.9v-4.7h57.3c0.2,0,0.4,0.2,0.4,0.4v1c0,1.8-1.5,3.3-3.3,3.3l0,0
		L180.5,66.9z M180.5,62.3v4.7h-8.7v-4.7H180.5z M180.5,74.1V79l-8.7-2.3v-4.9L180.5,74.1L180.5,74.1z M180.5,87.6v5.4l-8.7-5v-5.4
		L180.5,87.6z M171.8,103.7v-6.6l6,6c0.1,0.1,0.1,0.2,0.1,0.3c0,0.1,0,0.2-0.1,0.3l-0.7,0.7c-1.3,1.3-3.4,1.3-4.7,0L171.8,103.7z
		 M160.3,104.9l0.8-0.5c0.2-0.1,0.3-0.3,0.1-0.5l-2.4-4.1v5.6C159.4,105.3,159.9,105.2,160.3,104.9z M171.8,62.2v4.7h-4.1
		c-0.2,0-0.4-0.2-0.4-0.4c0,0,0,0,0,0v-1c0-1.8,1.5-3.3,3.3-3.3L171.8,62.2z M171.8,71.8v4.8l-5.9-1.6c-0.2-0.1-0.3-0.3-0.3-0.5
		c0,0,0,0,0,0l1-3.8c0-0.1,0.1-0.2,0.2-0.2c0.1,0,0.2,0,0.3,0L171.8,71.8L171.8,71.8z M171.8,82.6V88l-9.6-5.5
		c-0.2-0.1-0.3-0.4-0.1-0.5l2-3.4c0.1-0.2,0.4-0.2,0.5-0.1L171.8,82.6L171.8,82.6z M171.8,97.1v6.6l-12.8-12.8v-5.2l0.5-0.5
		c0.1-0.1,0.2-0.1,0.3-0.1c0.1,0,0.2,0,0.3,0.1L171.8,97.1z M158.9,99.8l-5.2-9c-0.1-0.2-0.3-0.3-0.5-0.1c0,0,0,0,0,0l-3.4,1.9
		c-0.2,0.1-0.3,0.3-0.1,0.5c0,0,0,0,0,0l6.1,10.6c0.6,1.1,1.9,1.8,3.1,1.6L158.9,99.8L158.9,99.8z M158.9,85.8v5.2l-2.3-2.3
		c-0.2-0.1-0.2-0.4,0-0.6c0,0,0,0,0,0L158.9,85.8z"/>
	<path class="st0" d="M136.1,44.3c2.1,14.9,2,22.7,2,40.2c0,0.2-0.2,0.4-0.4,0.4h-3.9c-0.2,0-0.4-0.2-0.4-0.4
		c0-17.5-0.1-25.3,2-40.2c0-0.2,0.2-0.3,0.4-0.3C135.9,43.9,136.1,44.1,136.1,44.3z"/>
	<path class="st0" d="M136.1,144.7c2.1-23.3,2-21,2-48.4c0-0.2-0.2-0.4-0.4-0.4h-3.9c-0.1,0-0.2,0-0.3,0.1c-0.1,0.1-0.1,0.2-0.1,0.3
		c0,27.5-0.1,25.1,1.9,48.4c0,0.2,0.2,0.4,0.5,0.3C136,145,136.1,144.9,136.1,144.7L136.1,144.7z"/>
</g>
</svg>
