<svg xmlns="http://www.w3.org/2000/svg" xmlns:xlink="http://www.w3.org/1999/xlink" viewBox="0 0 271.48 166.31"><defs><style>.cls-1{stroke:#ababab;stroke-miterlimit:2.61;stroke-width:0.22px;fill:url(#GradientFill_1);}.cls-2{fill-rule:evenodd;}</style><radialGradient id="GradientFill_1" cx="420.62" cy="293.5" r="228.09" gradientTransform="translate(-118.17 -81.19) scale(0.6 0.56)" gradientUnits="userSpaceOnUse"><stop offset="0" stop-color="#fff"/><stop offset="0.31" stop-color="#fff"/><stop offset="1" stop-color="#f7f8f8"/></radialGradient></defs><title>SVG4</title><g id="Layer_1" data-name="Layer 1"><rect class="cls-1" x="0.11" y="0.11" width="271.26" height="166.1"/></g><g id="Layer_2" data-name="Layer 2"><path class="cls-2" d="M282.34,407.66V402.1l5.19-9a.39.39,0,0,1,.54-.14l3.37,1.94a.39.39,0,0,1,.14.54L285.49,406a3.32,3.32,0,0,1-3.15,1.65Zm0-14.45,2.3-2.3a.39.39,0,0,0,0-.56l-2.3-2.3Zm-11-28.67a3.34,3.34,0,0,1,2.76,3.28v1a.38.38,0,0,1-.12.28.37.37,0,0,1-.28.11h-2.36v-4.63Zm11,23.51v5.16l-11,11v-6.63l10-10a.38.38,0,0,1,.28-.12.36.36,0,0,1,.28.12l.45.45Zm0,14.05L280,406.2a.4.4,0,0,0,.15.54l.84.49a3.32,3.32,0,0,0,1.38.43V402.1Zm-11-12.89,7.78-4.49a.42.42,0,0,0,.15-.55l-1.95-3.37a.4.4,0,0,0-.54-.14l-5.44,3.14v5.41Zm0-10.82v-4.85l2.84-.76a.36.36,0,0,1,.3,0,.37.37,0,0,1,.18.24l1,3.76a.4.4,0,0,1,0,.3.43.43,0,0,1-.24.18Zm-68.19-12.54v-1a.4.4,0,0,1,.4-.4h67.23a3.43,3.43,0,0,1,.56.05v4.63H206.47a3.33,3.33,0,0,1-3.32-3.32Zm68.19,7.69v4.85l-37.12,9.94a3.33,3.33,0,0,1-4.07-2.35l-.25-.93a.4.4,0,0,1,0-.3.43.43,0,0,1,.24-.18l41.16-11Zm0,10.26-25.22,14.56a.39.39,0,0,0-.14.54l.48.84A3.33,3.33,0,0,0,251,401l20.34-11.74V383.8Zm0,13.79v6.63l-2.48,2.48a3.34,3.34,0,0,1-4.7,0l-.68-.69a.39.39,0,0,1,0-.56Z" transform="translate(-169.67 -302.28)"/><path class="cls-2" d="M350.2,395.29v-5.41l14.68,8.48a.37.37,0,0,1,.18.24.35.35,0,0,1,0,.3l-.48.84A3.33,3.33,0,0,1,360,401l-9.8-5.66Zm0-14.08v-4.85l30.62,8.21a.43.43,0,0,1,.24.18.4.4,0,0,1,0,.3l-.25.93a3.33,3.33,0,0,1-4.07,2.35l-26.58-7.12Zm0-12v-4.68h57.25a.4.4,0,0,1,.4.4v1a3.32,3.32,0,0,1-3.32,3.32Zm0-4.68v4.68h-8.72v-4.68Zm0,11.87v4.85l-8.72-2.34V374l8.72,2.33Zm0,13.52v5.41l-8.72-5v-5.41l8.72,5ZM341.48,406v-6.62l6,6a.39.39,0,0,1,.12.28.36.36,0,0,1-.12.28l-.68.69a3.34,3.34,0,0,1-4.7,0ZM330,407.23l.84-.49a.4.4,0,0,0,.15-.54l-2.37-4.1v5.56a3.32,3.32,0,0,0,1.38-.43Zm11.44-42.74v4.68H337.3a.39.39,0,0,1-.4-.39v-1a3.33,3.33,0,0,1,3.32-3.33Zm0,9.54v4.84l-5.87-1.57a.39.39,0,0,1-.28-.48l1-3.76a.37.37,0,0,1,.18-.24.36.36,0,0,1,.3,0l4.66,1.25Zm0,10.82v5.41l-9.6-5.54a.42.42,0,0,1-.15-.55l1.95-3.37a.4.4,0,0,1,.54-.14l7.26,4.19Zm0,14.56V406l-12.82-12.82v-5.16l.45-.45a.36.36,0,0,1,.28-.12.38.38,0,0,1,.28.12Zm-12.82,2.69-5.19-9a.39.39,0,0,0-.54-.14l-3.37,1.94a.39.39,0,0,0-.14.54L325.51,406a3.32,3.32,0,0,0,3.15,1.65V402.1Zm0-14.05v5.16l-2.3-2.3a.39.39,0,0,1,0-.56Z" transform="translate(-169.67 -302.28)"/><path class="cls-2" d="M305.8,346.56c2.06,14.89,1.95,22.71,1.95,40.23a.4.4,0,0,1-.4.4h-3.88a.4.4,0,0,1-.4-.4c0-17.53-.12-25.34,1.95-40.23a.38.38,0,0,1,.39-.34A.39.39,0,0,1,305.8,346.56Z" transform="translate(-169.67 -302.28)"/><path class="cls-2" d="M305.8,447c2.07-23.25,1.95-21,1.95-48.4a.41.41,0,0,0-.4-.4h-3.88a.4.4,0,0,0-.29.12.39.39,0,0,0-.11.28c0,27.45-.12,25.15,1.94,48.4a.4.4,0,0,0,.79,0Z" transform="translate(-169.67 -302.28)"/></g></svg>