<svg xmlns="http://www.w3.org/2000/svg" xmlns:xlink="http://www.w3.org/1999/xlink" viewBox="0 0 271.48 166.31"><defs><style>.cls-1{stroke:#ababab;stroke-miterlimit:2.61;stroke-width:0.22px;fill:url(#GradientFill_1);}.cls-2{fill:#e5e5e5;}.cls-3{fill:#e61446;}</style><radialGradient id="GradientFill_1" cx="424.01" cy="309.85" r="228.09" gradientTransform="translate(-120.22 -90.35) scale(0.6 0.56)" gradientUnits="userSpaceOnUse"><stop offset="0" stop-color="#fff"/><stop offset="0.31" stop-color="#fff"/><stop offset="1" stop-color="#f7f8f8"/></radialGradient></defs><title>SVG5</title><g id="Layer_1" data-name="Layer 1"><rect class="cls-1" x="0.11" y="0.11" width="271.26" height="166.1"/></g><g id="Layer_2" data-name="Layer 2"><path class="cls-2" d="M296.49,386.62c6.36,3.7,12.2,1.17,17.64-1.2,6.68-2.89,12.85-5.56,19.36,1a28.89,28.89,0,0,1,8.58,21c0,8.7-3.33,17.65-8.35,25.19-7.79,11.71-10.24,10.83-16.44,8.59a35.91,35.91,0,0,0-7.21-2c-2.49-.39-4.53.67-6.61,1.75-3.06,1.59-6.2,3.23-11.14,1.94a17.16,17.16,0,0,1-6.57-3.46c-5-4.12-8.89-11.12-11-18.8s-2.57-16-.78-22.83a22.86,22.86,0,0,1,4.29-8.82,27.47,27.47,0,0,1,14.36-9.19,26.31,26.31,0,0,1,12.82.17.84.84,0,0,0,.8-.21.85.85,0,0,0,.24-.8,26.35,26.35,0,0,0-6-11.6,37.59,37.59,0,0,0-12.8-9.31.85.85,0,0,0-1.19.92,20.83,20.83,0,0,0,4.25,9.48,13.41,13.41,0,0,0,9.83,5c1.19.06,1.36,3.78-.08,3.71a17,17,0,0,1-12.59-6.37,25.79,25.79,0,0,1-5.52-16.09v-1.39a.84.84,0,0,1,.36-.69.83.83,0,0,1,.76-.11l1.32.43a42.7,42.7,0,0,1,18.45,12,29.36,29.36,0,0,1,7.45,18l.08,1.55a.85.85,0,0,1-1.16.83l-1.45-.57a24,24,0,0,0-14.71-1.36,23.73,23.73,0,0,0-12.38,7.94,19.25,19.25,0,0,0-3.56,7.4c-1.62,6.24-1.2,13.89.77,20.93s5.39,13.3,9.8,16.92a13.71,13.71,0,0,0,5.16,2.75c3.55.92,6.06-.38,8.5-1.65,2.63-1.37,5.19-2.7,8.87-2.14a39.69,39.69,0,0,1,7.9,2.15c4.26,1.54,5.93,2.14,12.12-7.15,4.64-7,7.73-15.21,7.73-23.15a25.33,25.33,0,0,0-7.5-18.42c-4.74-4.74-9.8-2.54-15.27-.17-6.32,2.74-13.1,5.68-21.06.95C293.3,389,295.46,386,296.49,386.62Z" transform="translate(-171.71 -311.43)"/><path class="cls-3" d="M294.9,383.28c6.36,3.69,12.2,1.16,17.64-1.2,6.68-2.89,12.85-5.57,19.36.95a28.91,28.91,0,0,1,8.58,21c0,8.7-3.33,17.65-8.35,25.19-7.79,11.7-10.24,10.82-16.44,8.59a36.51,36.51,0,0,0-7.21-2c-2.49-.38-4.53.68-6.61,1.76-3.06,1.59-6.2,3.22-11.14,1.94a17.33,17.33,0,0,1-6.57-3.47c-5-4.11-8.89-11.12-11-18.79s-2.57-16-.78-22.84a23,23,0,0,1,4.29-8.82A27.47,27.47,0,0,1,291,376.47a26.19,26.19,0,0,1,12.82.17.85.85,0,0,0,.8-.22.84.84,0,0,0,.24-.79,26.29,26.29,0,0,0-6-11.6,37.76,37.76,0,0,0-12.8-9.32.85.85,0,0,0-.88.11.81.81,0,0,0-.31.82,20.83,20.83,0,0,0,4.25,9.48,13.44,13.44,0,0,0,9.83,5c1.19.06,1.36,3.77-.08,3.71a17,17,0,0,1-12.59-6.37,25.82,25.82,0,0,1-5.52-16.1V350a.83.83,0,0,1,.36-.69.8.8,0,0,1,.76-.12l1.32.44a42.67,42.67,0,0,1,18.45,12,29.39,29.39,0,0,1,7.45,18l.08,1.56a.82.82,0,0,1-.35.73.84.84,0,0,1-.81.1l-1.45-.57A22.66,22.66,0,0,0,279.49,388a19.18,19.18,0,0,0-3.56,7.4c-1.62,6.23-1.2,13.89.77,20.93s5.39,13.3,9.8,16.92a13.55,13.55,0,0,0,5.16,2.74c3.55.93,6.06-.38,8.5-1.65,2.63-1.36,5.19-2.69,8.87-2.13a39.69,39.69,0,0,1,7.9,2.15c4.26,1.53,5.93,2.14,12.12-7.15,4.64-7,7.73-15.22,7.73-23.15a25.31,25.31,0,0,0-7.5-18.42c-4.74-4.74-9.8-2.55-15.27-.17-6.32,2.74-13.1,5.68-21.06.95C291.71,385.69,293.87,382.68,294.9,383.28Z" transform="translate(-171.71 -311.43)"/></g></svg>