<?xml version="1.0" encoding="utf-8"?>
<!-- Generator: Adobe Illustrator 23.0.0, SVG Export Plug-In . SVG Version: 6.00 Build 0)  -->
<svg version="1.1" id="apple" xmlns="http://www.w3.org/2000/svg" xmlns:xlink="http://www.w3.org/1999/xlink" x="0px" y="0px"
	 viewBox="0 0 271.5 166.3" style="enable-background:new 0 0 271.5 166.3;" xml:space="preserve">
<style type="text/css">
	.st0{fill:#E5E5E5;}
	.st1{fill:#E61446;}
</style>
<g id="_x31_">
	<path class="st0" d="M124.8,75.2c6.4,3.7,12.2,1.2,17.6-1.2c6.7-2.9,12.9-5.6,19.4,1c5.6,5.5,8.7,13.1,8.6,21
		c0,8.7-3.3,17.6-8.4,25.2c-7.8,11.7-10.2,10.8-16.4,8.6c-2.3-0.9-4.7-1.6-7.2-2c-2.5-0.4-4.5,0.7-6.6,1.8
		c-3.1,1.6-6.2,3.2-11.1,1.9c-2.4-0.7-4.7-1.8-6.6-3.5c-5-4.1-8.9-11.1-11-18.8s-2.6-16-0.8-22.8c0.8-3.2,2.2-6.2,4.3-8.8
		c3.7-4.5,8.7-7.7,14.4-9.2c4.2-1,8.6-0.9,12.8,0.2c0.3,0.1,0.6,0,0.8-0.2c0.2-0.2,0.3-0.5,0.2-0.8c-1-4.3-3.1-8.3-6-11.6
		c-3.6-4-7.9-7.2-12.8-9.3c-0.4-0.2-0.9,0-1.1,0.4c-0.1,0.2-0.1,0.3-0.1,0.5c0.6,3.5,2.1,6.7,4.3,9.5c2.4,3,6,4.8,9.8,5
		c1.2,0.1,1.4,3.8-0.1,3.7c-4.9-0.2-9.5-2.5-12.6-6.4c-3.6-4.6-5.6-10.3-5.5-16.1v-1.4c0-0.3,0.1-0.5,0.4-0.7
		c0.2-0.2,0.5-0.2,0.8-0.1l1.3,0.4c7.1,2.3,13.5,6.5,18.5,12c4.5,5,7.1,11.3,7.5,18l0.1,1.5c0,0.5-0.3,0.9-0.8,0.9
		c-0.1,0-0.2,0-0.3-0.1l-1.5-0.6c-4.6-2-9.8-2.5-14.7-1.4c-4.9,1.3-9.2,4-12.4,7.9c-1.7,2.2-2.9,4.7-3.6,7.4
		c-1.6,6.2-1.2,13.9,0.8,20.9s5.4,13.3,9.8,16.9c1.5,1.3,3.3,2.2,5.2,2.8c3.5,0.9,6.1-0.4,8.5-1.6c2.6-1.4,5.2-2.7,8.9-2.1
		c2.7,0.4,5.3,1.2,7.9,2.1c4.3,1.5,5.9,2.1,12.1-7.1c4.6-7,7.7-15.2,7.7-23.1c0.1-6.9-2.6-13.6-7.5-18.4c-4.7-4.7-9.8-2.5-15.3-0.2
		c-6.3,2.7-13.1,5.7-21.1,1C121.6,77.6,123.7,74.6,124.8,75.2z"/>
	<path class="st1" d="M123.2,71.8c6.4,3.7,12.2,1.2,17.6-1.2c6.7-2.9,12.9-5.6,19.4,1c5.6,5.5,8.7,13.1,8.6,21
		c0,8.7-3.3,17.6-8.4,25.2c-7.8,11.7-10.2,10.8-16.4,8.6c-2.3-0.9-4.7-1.6-7.2-2c-2.5-0.4-4.5,0.7-6.6,1.8
		c-3.1,1.6-6.2,3.2-11.1,1.9c-2.4-0.7-4.7-1.9-6.6-3.5c-5-4.1-8.9-11.1-11-18.8s-2.6-16-0.8-22.8c0.8-3.2,2.2-6.2,4.3-8.8
		c3.7-4.5,8.7-7.7,14.3-9.1c4.2-1,8.6-0.9,12.8,0.2c0.3,0.1,0.6,0,0.8-0.2c0.2-0.2,0.3-0.5,0.2-0.8c-1-4.3-3.1-8.3-6-11.6
		c-3.6-4-7.9-7.2-12.8-9.3c-0.3-0.1-0.6-0.1-0.9,0.1c-0.3,0.2-0.4,0.5-0.3,0.8c0.6,3.5,2.1,6.7,4.3,9.5c2.4,3,6,4.8,9.8,5
		c1.2,0.1,1.4,3.8-0.1,3.7c-4.9-0.2-9.5-2.5-12.6-6.4c-3.6-4.6-5.6-10.3-5.5-16.1v-1.4c0-0.3,0.1-0.5,0.4-0.7
		c0.2-0.2,0.5-0.2,0.8-0.1l1.3,0.4c7.1,2.3,13.5,6.5,18.5,12c4.5,5,7.1,11.3,7.5,18l0.1,1.6c0,0.3-0.1,0.6-0.4,0.7
		c-0.2,0.2-0.5,0.2-0.8,0.1l-1.5-0.6c-9.5-4.3-20.6-1.6-27.1,6.5c-1.7,2.2-2.9,4.7-3.6,7.4c-1.6,6.2-1.2,13.9,0.8,20.9
		s5.4,13.3,9.8,16.9c1.5,1.3,3.3,2.2,5.2,2.7c3.5,0.9,6.1-0.4,8.5-1.6c2.6-1.4,5.2-2.7,8.9-2.1c2.7,0.4,5.3,1.2,7.9,2.1
		c4.3,1.5,5.9,2.1,12.1-7.1c4.6-7,7.7-15.2,7.7-23.1c0.1-6.9-2.6-13.6-7.5-18.4c-4.7-4.7-9.8-2.5-15.3-0.2c-6.3,2.7-13.1,5.7-21.1,1
		C120,74.3,122.2,71.2,123.2,71.8z"/>
</g>
</svg>
