<?xml version="1.0" encoding="utf-8"?>
<!-- Generator: Adobe Illustrator 23.0.0, SVG Export Plug-In . SVG Version: 6.00 Build 0)  -->
<svg version="1.1" id="sun" xmlns="http://www.w3.org/2000/svg" xmlns:xlink="http://www.w3.org/1999/xlink" x="0px" y="0px"
	 viewBox="0 0 271.5 166.3" style="enable-background:new 0 0 271.5 166.3;" xml:space="preserve">
<style type="text/css">
	.st0{fill:none;stroke:#DE2525;stroke-width:3;stroke-miterlimit:2.61;}
	.st1{fill:#ED8F26;stroke:#F1AB3E;stroke-width:3;stroke-miterlimit:2.61;}
</style>
<g id="_x32_">
	<line class="st0" x1="181.8" y1="79" x2="156" y2="79.9"/>
	<line class="st0" x1="178.9" y1="58.5" x2="154.7" y2="67.7"/>
	<line class="st0" x1="164.5" y1="39.7" x2="145.8" y2="57.5"/>
	<line class="st0" x1="149.1" y1="27.4" x2="140.8" y2="51.9"/>
	<line class="st0" x1="129" y1="22.9" x2="129" y2="48.8"/>
	<line class="st0" x1="106.3" y1="29.7" x2="116.3" y2="53.6"/>
	<line class="st0" x1="78.8" y1="81.7" x2="104.3" y2="77.4"/>
	<line class="st0" x1="84.4" y1="101.6" x2="107.2" y2="89.3"/>
	<line class="st0" x1="101.2" y1="118.3" x2="117.4" y2="98.2"/>
	<line class="st0" x1="118.1" y1="128.4" x2="123.1" y2="103"/>
	<line class="st0" x1="138.7" y1="130.2" x2="135.2" y2="104.6"/>
	<line class="st0" x1="158" y1="122.2" x2="145" y2="99.9"/>
	<line class="st0" x1="152.3" y1="90" x2="176.9" y2="98.1"/>
	<line class="st0" x1="77.4" y1="63.7" x2="102.3" y2="70.7"/>
	<line class="st0" x1="106.1" y1="61.4" x2="85.5" y2="45.8"/>
</g>
<g id="_x31_">
	<circle class="st1" cx="129.3" cy="77.4" r="27.6"/>
</g>
</svg>
